<mxfile host="app.diagrams.net" agent="Mozilla/5.0 (Windows NT 10.0; Win64; x64) AppleWebKit/537.36 (KHTML, like Gecko) Chrome/134.0.0.0 Safari/537.36" version="26.2.8">
  <diagram name="Page-1" id="v3wkkKDNzwEXIRuGeXZs">
    <mxGraphModel dx="1910" dy="1960" grid="1" gridSize="10" guides="1" tooltips="1" connect="1" arrows="1" fold="1" page="1" pageScale="1" pageWidth="827" pageHeight="1169" math="0" shadow="0">
      <root>
        <mxCell id="0" />
        <mxCell id="1" parent="0" />
        <mxCell id="e811CD-kVdlNk8FhSfKc-19" value="Reads processed&lt;div&gt;waiting times&lt;/div&gt;&lt;div&gt;data&lt;/div&gt;" style="edgeStyle=orthogonalEdgeStyle;rounded=0;orthogonalLoop=1;jettySize=auto;html=1;" parent="1" source="e811CD-kVdlNk8FhSfKc-3" target="e811CD-kVdlNk8FhSfKc-17" edge="1">
          <mxGeometry x="-0.0811" y="25" relative="1" as="geometry">
            <mxPoint as="offset" />
          </mxGeometry>
        </mxCell>
        <mxCell id="e811CD-kVdlNk8FhSfKc-11" style="edgeStyle=orthogonalEdgeStyle;rounded=0;orthogonalLoop=1;jettySize=auto;html=1;entryX=0;entryY=0.5;entryDx=0;entryDy=0;" parent="1" source="e811CD-kVdlNk8FhSfKc-1" target="e811CD-kVdlNk8FhSfKc-10" edge="1">
          <mxGeometry relative="1" as="geometry" />
        </mxCell>
        <mxCell id="e811CD-kVdlNk8FhSfKc-12" value="Publish&lt;div&gt;raw&lt;/div&gt;&lt;div&gt;data&lt;/div&gt;" style="edgeLabel;html=1;align=center;verticalAlign=middle;resizable=0;points=[];" parent="e811CD-kVdlNk8FhSfKc-11" vertex="1" connectable="0">
          <mxGeometry x="-0.3219" y="-1" relative="1" as="geometry">
            <mxPoint x="19" as="offset" />
          </mxGeometry>
        </mxCell>
        <mxCell id="7_be1yMwDwS5NmoDM4J4-21" style="edgeStyle=orthogonalEdgeStyle;rounded=0;orthogonalLoop=1;jettySize=auto;html=1;entryX=1;entryY=0.5;entryDx=0;entryDy=0;" edge="1" parent="1" source="e811CD-kVdlNk8FhSfKc-1" target="7_be1yMwDwS5NmoDM4J4-16">
          <mxGeometry relative="1" as="geometry">
            <Array as="points">
              <mxPoint x="40" y="270" />
              <mxPoint x="40" y="190" />
            </Array>
          </mxGeometry>
        </mxCell>
        <mxCell id="e811CD-kVdlNk8FhSfKc-1" value="Scraper&lt;div&gt;[docker]&lt;/div&gt;" style="rounded=0;whiteSpace=wrap;html=1;" parent="1" vertex="1">
          <mxGeometry x="60" y="240" width="120" height="60" as="geometry" />
        </mxCell>
        <mxCell id="e811CD-kVdlNk8FhSfKc-13" value="Fetch&lt;div&gt;raw&lt;/div&gt;&lt;div&gt;data&lt;/div&gt;" style="edgeStyle=orthogonalEdgeStyle;rounded=0;orthogonalLoop=1;jettySize=auto;html=1;" parent="1" source="e811CD-kVdlNk8FhSfKc-2" target="e811CD-kVdlNk8FhSfKc-10" edge="1">
          <mxGeometry relative="1" as="geometry" />
        </mxCell>
        <mxCell id="e811CD-kVdlNk8FhSfKc-18" value="Stores&lt;div&gt;processed&lt;/div&gt;&lt;div&gt;data&lt;/div&gt;" style="edgeStyle=orthogonalEdgeStyle;rounded=0;orthogonalLoop=1;jettySize=auto;html=1;" parent="1" source="e811CD-kVdlNk8FhSfKc-2" target="e811CD-kVdlNk8FhSfKc-17" edge="1">
          <mxGeometry relative="1" as="geometry" />
        </mxCell>
        <mxCell id="e811CD-kVdlNk8FhSfKc-2" value="&lt;div&gt;Processor&lt;/div&gt;&lt;div&gt;[docker]&lt;/div&gt;" style="rounded=0;whiteSpace=wrap;html=1;" parent="1" vertex="1">
          <mxGeometry x="420" y="240" width="120" height="60" as="geometry" />
        </mxCell>
        <mxCell id="e811CD-kVdlNk8FhSfKc-3" value="&lt;div&gt;API&lt;/div&gt;&lt;div&gt;[docker]&lt;/div&gt;" style="rounded=0;whiteSpace=wrap;html=1;" parent="1" vertex="1">
          <mxGeometry x="670" y="80" width="120" height="60" as="geometry" />
        </mxCell>
        <mxCell id="e811CD-kVdlNk8FhSfKc-10" value="Azure Service Bus" style="rounded=0;whiteSpace=wrap;html=1;fillColor=#dae8fc;strokeColor=#6c8ebf;" parent="1" vertex="1">
          <mxGeometry x="290" y="250" width="70" height="40" as="geometry" />
        </mxCell>
        <mxCell id="e811CD-kVdlNk8FhSfKc-17" value="Azure Data Table" style="rounded=0;whiteSpace=wrap;html=1;fillColor=#dae8fc;strokeColor=#6c8ebf;" parent="1" vertex="1">
          <mxGeometry x="620" y="250" width="70" height="40" as="geometry" />
        </mxCell>
        <mxCell id="7_be1yMwDwS5NmoDM4J4-6" style="edgeStyle=orthogonalEdgeStyle;rounded=0;orthogonalLoop=1;jettySize=auto;html=1;entryX=0;entryY=0.5;entryDx=0;entryDy=0;" edge="1" parent="1" source="7_be1yMwDwS5NmoDM4J4-2" target="e811CD-kVdlNk8FhSfKc-10">
          <mxGeometry relative="1" as="geometry">
            <Array as="points">
              <mxPoint x="260" y="190" />
              <mxPoint x="260" y="270" />
            </Array>
          </mxGeometry>
        </mxCell>
        <mxCell id="7_be1yMwDwS5NmoDM4J4-20" style="edgeStyle=orthogonalEdgeStyle;rounded=0;orthogonalLoop=1;jettySize=auto;html=1;" edge="1" parent="1" source="7_be1yMwDwS5NmoDM4J4-2" target="7_be1yMwDwS5NmoDM4J4-16">
          <mxGeometry relative="1" as="geometry" />
        </mxCell>
        <mxCell id="7_be1yMwDwS5NmoDM4J4-2" value="Scraper&lt;div&gt;[docker]&lt;/div&gt;" style="rounded=0;whiteSpace=wrap;html=1;" vertex="1" parent="1">
          <mxGeometry x="70" y="160" width="120" height="60" as="geometry" />
        </mxCell>
        <mxCell id="7_be1yMwDwS5NmoDM4J4-18" style="edgeStyle=orthogonalEdgeStyle;rounded=0;orthogonalLoop=1;jettySize=auto;html=1;" edge="1" parent="1" source="7_be1yMwDwS5NmoDM4J4-3" target="7_be1yMwDwS5NmoDM4J4-17">
          <mxGeometry relative="1" as="geometry">
            <Array as="points">
              <mxPoint x="40" y="350" />
              <mxPoint x="40" y="400" />
            </Array>
          </mxGeometry>
        </mxCell>
        <mxCell id="7_be1yMwDwS5NmoDM4J4-26" style="edgeStyle=orthogonalEdgeStyle;rounded=0;orthogonalLoop=1;jettySize=auto;html=1;" edge="1" parent="1" source="7_be1yMwDwS5NmoDM4J4-3" target="7_be1yMwDwS5NmoDM4J4-25">
          <mxGeometry relative="1" as="geometry" />
        </mxCell>
        <mxCell id="7_be1yMwDwS5NmoDM4J4-3" value="Scraper&lt;div&gt;[docker]&lt;/div&gt;" style="rounded=0;whiteSpace=wrap;html=1;" vertex="1" parent="1">
          <mxGeometry x="70" y="320" width="120" height="60" as="geometry" />
        </mxCell>
        <mxCell id="7_be1yMwDwS5NmoDM4J4-19" style="edgeStyle=orthogonalEdgeStyle;rounded=0;orthogonalLoop=1;jettySize=auto;html=1;" edge="1" parent="1" source="7_be1yMwDwS5NmoDM4J4-4" target="7_be1yMwDwS5NmoDM4J4-17">
          <mxGeometry relative="1" as="geometry">
            <Array as="points">
              <mxPoint x="40" y="430" />
              <mxPoint x="40" y="400" />
            </Array>
          </mxGeometry>
        </mxCell>
        <mxCell id="7_be1yMwDwS5NmoDM4J4-27" style="edgeStyle=orthogonalEdgeStyle;rounded=0;orthogonalLoop=1;jettySize=auto;html=1;" edge="1" parent="1" source="7_be1yMwDwS5NmoDM4J4-4" target="7_be1yMwDwS5NmoDM4J4-25">
          <mxGeometry relative="1" as="geometry" />
        </mxCell>
        <mxCell id="7_be1yMwDwS5NmoDM4J4-4" value="Scraper&lt;div&gt;[docker]&lt;/div&gt;" style="rounded=0;whiteSpace=wrap;html=1;" vertex="1" parent="1">
          <mxGeometry x="100" y="400" width="120" height="60" as="geometry" />
        </mxCell>
        <mxCell id="7_be1yMwDwS5NmoDM4J4-7" style="edgeStyle=orthogonalEdgeStyle;rounded=0;orthogonalLoop=1;jettySize=auto;html=1;entryX=0;entryY=0.5;entryDx=0;entryDy=0;" edge="1" parent="1" source="7_be1yMwDwS5NmoDM4J4-5" target="e811CD-kVdlNk8FhSfKc-10">
          <mxGeometry relative="1" as="geometry">
            <Array as="points">
              <mxPoint x="260" y="110" />
              <mxPoint x="260" y="270" />
            </Array>
          </mxGeometry>
        </mxCell>
        <mxCell id="7_be1yMwDwS5NmoDM4J4-22" style="edgeStyle=orthogonalEdgeStyle;rounded=0;orthogonalLoop=1;jettySize=auto;html=1;entryX=1;entryY=0.5;entryDx=0;entryDy=0;" edge="1" parent="1" source="7_be1yMwDwS5NmoDM4J4-5" target="7_be1yMwDwS5NmoDM4J4-16">
          <mxGeometry relative="1" as="geometry">
            <Array as="points">
              <mxPoint x="40" y="110" />
              <mxPoint x="40" y="190" />
            </Array>
          </mxGeometry>
        </mxCell>
        <mxCell id="7_be1yMwDwS5NmoDM4J4-5" value="Scraper&lt;div&gt;[docker]&lt;/div&gt;" style="rounded=0;whiteSpace=wrap;html=1;" vertex="1" parent="1">
          <mxGeometry x="100" y="80" width="120" height="60" as="geometry" />
        </mxCell>
        <mxCell id="7_be1yMwDwS5NmoDM4J4-11" style="edgeStyle=orthogonalEdgeStyle;rounded=0;orthogonalLoop=1;jettySize=auto;html=1;" edge="1" parent="1" source="7_be1yMwDwS5NmoDM4J4-10" target="e811CD-kVdlNk8FhSfKc-17">
          <mxGeometry relative="1" as="geometry" />
        </mxCell>
        <mxCell id="7_be1yMwDwS5NmoDM4J4-10" value="&lt;div&gt;API&lt;/div&gt;&lt;div&gt;[docker]&lt;/div&gt;" style="rounded=0;whiteSpace=wrap;html=1;" vertex="1" parent="1">
          <mxGeometry x="520" y="80" width="120" height="60" as="geometry" />
        </mxCell>
        <mxCell id="7_be1yMwDwS5NmoDM4J4-13" style="edgeStyle=orthogonalEdgeStyle;rounded=0;orthogonalLoop=1;jettySize=auto;html=1;" edge="1" parent="1" source="7_be1yMwDwS5NmoDM4J4-12" target="7_be1yMwDwS5NmoDM4J4-10">
          <mxGeometry relative="1" as="geometry" />
        </mxCell>
        <mxCell id="7_be1yMwDwS5NmoDM4J4-14" style="edgeStyle=orthogonalEdgeStyle;rounded=0;orthogonalLoop=1;jettySize=auto;html=1;" edge="1" parent="1" source="7_be1yMwDwS5NmoDM4J4-12" target="e811CD-kVdlNk8FhSfKc-3">
          <mxGeometry relative="1" as="geometry" />
        </mxCell>
        <mxCell id="7_be1yMwDwS5NmoDM4J4-12" value="&lt;div&gt;Load balancer&lt;/div&gt;" style="rounded=0;whiteSpace=wrap;html=1;" vertex="1" parent="1">
          <mxGeometry x="595" y="-30" width="120" height="60" as="geometry" />
        </mxCell>
        <mxCell id="7_be1yMwDwS5NmoDM4J4-16" value="Looopings" style="rounded=0;whiteSpace=wrap;html=1;fillColor=#f5f5f5;fontColor=#333333;strokeColor=#666666;" vertex="1" parent="1">
          <mxGeometry x="-120" y="160" width="120" height="60" as="geometry" />
        </mxCell>
        <mxCell id="7_be1yMwDwS5NmoDM4J4-17" value="Other Source" style="rounded=0;whiteSpace=wrap;html=1;fillColor=#f5f5f5;fontColor=#333333;strokeColor=#666666;" vertex="1" parent="1">
          <mxGeometry x="-120" y="370" width="120" height="60" as="geometry" />
        </mxCell>
        <mxCell id="7_be1yMwDwS5NmoDM4J4-29" style="edgeStyle=orthogonalEdgeStyle;rounded=0;orthogonalLoop=1;jettySize=auto;html=1;entryX=0.5;entryY=1;entryDx=0;entryDy=0;" edge="1" parent="1" source="7_be1yMwDwS5NmoDM4J4-24" target="e811CD-kVdlNk8FhSfKc-17">
          <mxGeometry relative="1" as="geometry" />
        </mxCell>
        <mxCell id="7_be1yMwDwS5NmoDM4J4-32" value="Stores&lt;div&gt;processed&lt;div&gt;data&lt;/div&gt;&lt;/div&gt;" style="edgeLabel;html=1;align=center;verticalAlign=middle;resizable=0;points=[];" vertex="1" connectable="0" parent="7_be1yMwDwS5NmoDM4J4-29">
          <mxGeometry x="-0.6889" y="1" relative="1" as="geometry">
            <mxPoint x="5" y="1" as="offset" />
          </mxGeometry>
        </mxCell>
        <mxCell id="7_be1yMwDwS5NmoDM4J4-30" value="" style="edgeStyle=orthogonalEdgeStyle;rounded=0;orthogonalLoop=1;jettySize=auto;html=1;" edge="1" parent="1" source="7_be1yMwDwS5NmoDM4J4-24" target="7_be1yMwDwS5NmoDM4J4-25">
          <mxGeometry relative="1" as="geometry" />
        </mxCell>
        <mxCell id="7_be1yMwDwS5NmoDM4J4-33" value="Fetch&lt;div&gt;raw&lt;/div&gt;&lt;div&gt;data&lt;/div&gt;" style="edgeLabel;html=1;align=center;verticalAlign=middle;resizable=0;points=[];" vertex="1" connectable="0" parent="7_be1yMwDwS5NmoDM4J4-30">
          <mxGeometry x="0.1667" y="-3" relative="1" as="geometry">
            <mxPoint x="3" y="5" as="offset" />
          </mxGeometry>
        </mxCell>
        <mxCell id="7_be1yMwDwS5NmoDM4J4-24" value="&lt;div&gt;Processor&lt;/div&gt;&lt;div&gt;[docker]&lt;/div&gt;" style="rounded=0;whiteSpace=wrap;html=1;" vertex="1" parent="1">
          <mxGeometry x="420" y="370" width="120" height="60" as="geometry" />
        </mxCell>
        <mxCell id="7_be1yMwDwS5NmoDM4J4-25" value="Azure Service Bus" style="rounded=0;whiteSpace=wrap;html=1;fillColor=#dae8fc;strokeColor=#6c8ebf;" vertex="1" parent="1">
          <mxGeometry x="290" y="380" width="70" height="40" as="geometry" />
        </mxCell>
      </root>
    </mxGraphModel>
  </diagram>
</mxfile>
